<svg width="17" height="12" viewBox="0 0 17 12" fill="none" xmlns="http://www.w3.org/2000/svg">
<path fill-rule="evenodd" clip-rule="evenodd" d="M16.6887 0.305528C16.888 0.501216 17 0.766591 17 1.04329C17 1.32 16.888 1.58537 16.6887 1.78106L6.58703 11.6945C6.38762 11.8901 6.11721 12 5.83525 12C5.5533 12 5.28288 11.8901 5.08348 11.6945L0.29849 6.99865C0.104796 6.80184 -0.00238252 6.53824 4.01965e-05 6.26463C0.00246291 5.99103 0.114293 5.7293 0.311443 5.53582C0.508593 5.34235 0.775289 5.2326 1.05409 5.23022C1.33289 5.22785 1.60149 5.33303 1.80204 5.52311L5.83525 9.48117L15.1851 0.305528C15.3845 0.109899 15.6549 0 15.9369 0C16.2189 0 16.4893 0.109899 16.6887 0.305528Z" fill="currentColor"/>
</svg>
