<svg viewBox="0 0 42 34" xmlns="http://www.w3.org/2000/svg"><path fill-rule="evenodd" clip-rule="evenodd" d="M3.369 14.645Q19.83 7.472 25.323 5.188C35.778.84 37.95.084 39.366.06c.312-.005 1.008.072 1.46.438.38.31.485.727.535 1.02s.113.96.063 1.482c-.567 5.952-3.018 20.398-4.265 27.065-.528 2.822-1.567 3.767-2.573 3.86-2.186.201-3.846-1.445-5.964-2.833-3.313-2.172-5.185-3.524-8.401-5.643-3.717-2.45-1.308-3.796.81-5.996.555-.576 10.187-9.337 10.374-10.132.023-.1.045-.47-.175-.665s-.545-.13-.78-.076q-.498.113-15.88 10.496-2.253 1.547-4.082 1.508c-1.344-.03-3.93-.76-5.852-1.385C2.28 18.43.405 18.026.568 16.725q.128-1.017 2.8-2.08"/></svg>