<svg viewBox="0 0 46 46" xmlns="http://www.w3.org/2000/svg"><path d="M.324 45.676 3.512 34.03a22.4 22.4 0 0 1-3-11.236C.519 10.405 10.6.324 22.988.324a22.33 22.33 0 0 1 15.898 6.59 22.34 22.34 0 0 1 6.576 15.9c-.006 12.392-10.087 22.473-22.474 22.473a22.5 22.5 0 0 1-10.749-2.736zm12.466-7.194c3.167 1.88 6.19 3.007 10.19 3.009 10.294 0 18.68-8.38 18.687-18.68.003-10.322-8.344-18.69-18.673-18.693-10.302 0-18.683 8.379-18.687 18.678-.002 4.204 1.23 7.353 3.3 10.646l-1.888 6.894zm21.518-10.325c-.14-.234-.514-.374-1.077-.656-.561-.281-3.322-1.64-3.838-1.827-.514-.187-.888-.282-1.264.281-.375.562-1.452 1.828-1.779 2.202s-.655.421-1.216.14c-.562-.282-2.372-.873-4.517-2.788-1.669-1.489-2.797-3.327-3.124-3.89-.326-.562-.034-.866.246-1.146.253-.251.561-.655.843-.984.285-.325.378-.56.567-.936.187-.374.094-.703-.047-.984-.142-.28-1.265-3.044-1.731-4.169-.458-1.094-.92-.947-1.265-.963l-1.077-.02c-.374 0-.982.14-1.496.704-.514.563-1.966 1.92-1.966 4.684s2.013 5.435 2.293 5.809 3.959 6.047 9.592 8.48a33 33 0 0 0 3.2 1.182c1.346.427 2.57.367 3.538.223 1.08-.16 3.322-1.359 3.791-2.67.469-1.313.469-2.438.327-2.672"/></svg>