<svg width="17" height="10" viewBox="0 0 17 10" fill="none" xmlns="http://www.w3.org/2000/svg"><path d="M0.760 0.567 C 0.607 0.648,0.529 0.774,0.515 0.964 C 0.508 1.067,0.518 1.151,0.542 1.196 C 0.563 1.236,2.302 2.995,4.406 5.106 C 8.008 8.722,8.239 8.947,8.365 8.981 C 8.475 9.011,8.524 9.011,8.631 8.981 C 8.753 8.947,9.046 8.660,12.591 5.107 C 14.696 2.997,16.437 1.238,16.458 1.198 C 16.515 1.089,16.488 0.825,16.408 0.713 C 16.286 0.541,15.975 0.453,15.801 0.541 C 15.767 0.558,14.110 2.200,12.120 4.189 L 8.500 7.806 4.880 4.189 C 2.890 2.200,1.233 0.558,1.199 0.541 C 1.103 0.493,0.876 0.506,0.760 0.567 " stroke="none" fill-rule="evenodd" fill="black"></path></svg>