<svg viewBox="0 0 17 8" xmlns="http://www.w3.org/2000/svg"><path d="M12.655 0.353 C 12.387 0.448,12.254 0.741,12.355 1.011 C 12.371 1.055,12.920 1.627,13.573 2.281 C 14.227 2.936,14.762 3.481,14.762 3.493 C 14.762 3.504,11.440 3.513,7.381 3.513 L 0.000 3.513 0.000 4.009 L 0.000 4.505 7.388 4.505 L 14.776 4.505 13.596 5.688 C 12.946 6.339,12.394 6.914,12.367 6.968 C 12.304 7.093,12.321 7.339,12.401 7.446 C 12.479 7.551,12.623 7.645,12.742 7.667 C 12.985 7.713,12.950 7.743,14.743 5.955 C 15.702 4.999,16.428 4.254,16.450 4.201 C 16.472 4.151,16.490 4.058,16.490 3.995 C 16.490 3.932,16.472 3.839,16.450 3.789 C 16.428 3.736,15.702 2.991,14.743 2.035 C 13.316 0.612,13.060 0.369,12.962 0.342 C 12.820 0.304,12.789 0.305,12.655 0.353 " stroke="none" fill-rule="evenodd" fill="black"></path></svg>