<svg width="17" height="12" viewBox="0 0 17 12" fill="none" xmlns="http://www.w3.org/2000/svg"><path d="M15.689 0.029 C 15.426 0.095,15.293 0.198,14.662 0.821 C 14.320 1.159,12.193 3.249,9.936 5.466 L 5.833 9.495 4.312 7.998 C 1.714 5.440,1.705 5.431,1.516 5.339 C 1.362 5.264,1.318 5.256,1.063 5.256 C 0.806 5.256,0.763 5.264,0.610 5.339 C 0.393 5.446,0.187 5.651,0.091 5.858 C 0.027 5.996,0.015 6.060,0.015 6.276 C 0.014 6.756,-0.160 6.556,2.696 9.362 C 5.554 12.169,5.333 11.985,5.830 11.985 C 6.352 11.985,5.779 12.502,11.631 6.752 C 16.439 2.028,16.794 1.673,16.883 1.496 C 17.219 0.827,16.759 0.053,16.001 0.013 C 15.888 0.007,15.748 0.014,15.689 0.029 " fill="currentColor" stroke="none" fill-rule="evenodd"></path></svg>