<svg width="189" height="208" viewBox="0 0 189 208" fill="none" xmlns="http://www.w3.org/2000/svg"><path d="M47.160 5.647 C 29.323 14.939,7.192 26.903,6.094 27.847 C 1.644 31.672,2.642 38.910,7.996 41.641 C 9.601 42.461,12.453 42.725,14.050 42.203 C 14.725 41.982,25.129 36.575,37.170 30.187 C 61.328 17.370,61.097 17.519,62.201 14.010 C 63.244 10.693,62.051 6.964,59.259 4.816 C 57.677 3.600,56.209 3.154,53.775 3.152 C 52.110 3.150,51.539 3.366,47.160 5.647 M130.567 3.875 C 125.209 6.431,124.026 13.486,128.273 17.563 C 129.329 18.577,170.643 40.775,173.647 41.942 C 177.602 43.479,182.139 41.652,184.090 37.737 C 185.701 34.504,184.901 30.109,182.282 27.810 C 181.729 27.325,171.284 21.616,159.072 15.125 L 136.868 3.323 134.505 3.223 C 132.534 3.140,131.882 3.248,130.567 3.875 M87.652 29.003 C 58.826 31.218,32.911 48.219,19.376 73.793 C 12.244 87.267,8.740 103.285,9.732 117.884 C 10.568 130.207,13.171 140.034,18.429 150.727 C 30.381 175.035,53.350 192.097,80.325 196.706 C 87.803 197.983,98.683 198.122,105.840 197.030 C 124.703 194.154,140.829 186.117,153.905 173.076 C 176.431 150.610,184.439 117.525,174.667 87.297 C 162.648 50.119,126.653 26.005,87.652 29.003 " stroke="none" fill="black" fill-rule="evenodd"></path></svg>