<svg viewBox="0 0 42 34" xmlns="http://www.w3.org/2000/svg"><path d="M38.710 0.114 C 37.123 0.422,34.294 1.479,27.125 4.444 C 20.964 6.992,2.607 14.941,1.815 15.403 C 0.220 16.335,0.153 17.456,1.651 18.165 C 2.829 18.722,7.238 20.055,9.091 20.414 C 10.771 20.739,11.926 20.570,13.415 19.779 C 13.729 19.612,16.469 17.807,19.505 15.766 C 24.650 12.308,28.550 9.729,29.843 8.928 C 30.506 8.517,30.970 8.430,31.210 8.670 C 31.412 8.872,31.463 9.131,31.353 9.399 C 31.174 9.837,28.075 12.885,22.785 17.825 C 21.669 18.868,20.296 20.190,19.736 20.763 C 18.545 21.981,18.304 22.370,18.308 23.065 C 18.315 24.055,18.771 24.491,22.260 26.841 C 24.583 28.406,26.217 29.509,30.787 32.599 C 31.765 33.260,32.166 33.477,32.865 33.722 C 33.545 33.959,34.494 34.013,35.007 33.843 C 35.812 33.575,36.533 32.536,36.922 31.080 C 37.396 29.308,39.559 16.605,40.599 9.485 C 41.017 6.620,41.370 3.785,41.418 2.905 C 41.525 0.917,41.001 0.153,39.496 0.101 C 39.160 0.090,38.806 0.096,38.710 0.114 " stroke="none" fill-rule="evenodd" fill="black"></path></svg>