<svg viewBox="0 0 46 46" xmlns="http://www.w3.org/2000/svg"><path d="M21.543 0.389 C 13.718 0.874,6.587 5.549,3.015 12.535 C 1.883 14.749,1.162 16.961,0.756 19.472 C 0.532 20.853,0.474 23.803,0.643 25.251 C 0.962 27.998,1.656 30.343,2.878 32.806 L 3.502 34.063 1.930 39.802 C 1.065 42.958,0.381 45.563,0.409 45.591 C 0.437 45.619,3.104 44.948,6.336 44.100 L 12.212 42.559 12.795 42.852 C 16.804 44.864,21.342 45.660,25.723 45.119 C 29.795 44.617,33.717 42.965,36.992 40.371 C 37.957 39.607,39.737 37.831,40.495 36.877 C 42.891 33.857,44.449 30.439,45.105 26.757 C 45.386 25.185,45.424 24.693,45.420 22.732 C 45.415 20.586,45.296 19.476,44.882 17.710 C 44.003 13.959,42.162 10.461,39.616 7.705 C 36.837 4.696,33.678 2.649,29.938 1.435 C 28.029 0.815,26.408 0.513,24.300 0.385 C 22.932 0.302,22.951 0.302,21.543 0.389 M25.760 4.329 C 29.794 4.949,33.405 6.795,36.281 9.708 C 39.067 12.530,40.772 15.916,41.451 19.972 C 41.650 21.166,41.651 24.344,41.452 25.604 C 40.277 33.040,34.848 39.038,27.600 40.907 C 25.153 41.538,22.017 41.653,19.627 41.199 C 17.571 40.809,15.160 39.880,13.197 38.723 L 12.791 38.483 9.293 39.402 C 7.369 39.907,5.782 40.308,5.767 40.293 C 5.752 40.278,6.160 38.731,6.673 36.857 L 7.607 33.449 7.132 32.652 C 5.737 30.310,4.880 27.995,4.512 25.573 C 4.299 24.165,4.282 21.724,4.477 20.355 C 5.078 16.141,6.882 12.512,9.836 9.572 C 12.867 6.555,16.730 4.713,21.061 4.218 C 21.950 4.117,24.817 4.185,25.760 4.329 M14.197 12.655 C 13.693 12.907,13.174 13.423,12.636 14.209 C 11.993 15.145,11.669 16.127,11.600 17.341 C 11.476 19.554,12.320 21.625,14.549 24.572 C 16.899 27.679,19.613 30.113,22.315 31.538 C 23.682 32.259,26.213 33.216,27.406 33.462 C 28.130 33.612,29.617 33.613,30.315 33.465 C 31.398 33.236,32.943 32.306,33.579 31.503 C 34.247 30.657,34.647 28.432,34.202 28.030 C 34.043 27.886,30.234 26.024,29.504 25.734 C 29.222 25.622,28.917 25.530,28.825 25.530 C 28.550 25.530,28.271 25.747,27.907 26.244 C 27.491 26.812,26.469 28.028,26.198 28.279 C 25.904 28.549,25.597 28.507,24.585 28.056 C 22.151 26.972,20.240 25.444,18.626 23.291 C 18.228 22.760,17.769 22.079,17.607 21.779 C 17.238 21.091,17.252 21.040,18.106 20.052 C 18.916 19.114,19.269 18.483,19.222 18.056 C 19.185 17.713,17.324 13.200,17.077 12.853 C 16.832 12.508,16.519 12.420,15.540 12.420 C 14.720 12.420,14.640 12.434,14.197 12.655 " stroke="none" fill-rule="evenodd" fill="black"></path></svg>