<svg width="168" height="40" viewBox="0 0 168 40" fill="none" xmlns="http://www.w3.org/2000/svg">
<path d="M140.95 18.8713C142.409 13.2044 147.177 8.77246 153.499 8.57976C161.213 8.33103 166.787 14.0904 167.507 21.4754C168.318 29.7741 162.536 37.3313 153.707 37.036C148.925 36.8756 144.941 34.1365 142.634 30.2881C141.019 34.3008 137.064 36.6807 132.116 37.0067C128.545 37.2428 125.75 36.4611 122.437 34.9862C122.264 33.3691 122.12 31.7669 122.008 30.1657C121.771 30.6032 121.507 31.0279 121.219 31.4362C118.649 35.0879 114.376 37.1409 109.937 37.0368C105.45 36.9309 101.36 34.5914 99.0789 30.8707C98.9872 32.292 98.8747 33.6479 98.7415 34.9001L98.5332 36.8488C94.24 37.0099 91.2515 37.1212 86.9263 36.4603C82.6371 37.0044 79.5992 37.2184 75.1399 36.5803C71.4157 37.0999 68.1982 37.0826 64.4611 36.904L64.3486 36.2629C57.8107 37.2041 52.6764 37.1402 46.0921 36.6175L45.8559 34.7943C45.7195 33.7402 45.5973 32.6735 45.4913 31.5972C43.1771 35.4077 38.6747 37.0541 34.2523 37.0541C31.6732 37.0541 29.0214 36.4998 26.7191 35.4765L25.5191 34.9428C25.1807 32.5289 24.9206 30.4049 24.741 28.4326C24.6605 31.1377 24.5471 33.8601 24.3932 36.6254C20.0703 36.9743 16.8424 36.9388 12.5334 36.5457L12.7209 32.5795C8.93114 35.4978 5.21493 37.4165 0.894519 39.4798C0.422179 34.0733 0 28.7674 0 23.3263C0.00076 18.2909 0.38057 13.5219 1.00073 8.53783C5.67454 7.58655 7.84833 7.5905 12.5094 8.17387C12.38 10.0144 12.2396 11.8337 12.0585 13.671C13.6665 11.5691 15.2464 9.59195 17.0172 7.62284L24.8702 8.02704C24.8934 10.3263 24.9094 12.5956 24.9126 14.8484C25.0483 13.6537 25.2151 12.396 25.4121 11.0497C27.7997 8.96741 30.7044 8.52204 33.8844 8.56547C38.6109 8.63033 43.853 10.5419 43.853 16.0138C43.853 16.3975 43.8186 16.9115 43.6662 17.5069C44.228 18.0343 44.7013 18.5949 45.0986 19.1713C45.2335 16.2665 45.5415 13.4523 45.9908 10.4763C51.43 9.6852 59.7898 10.9382 64.1484 11.7564C64.1364 7.47112 64.2002 5.07393 65.0925 0.892247C81.2231 -7.17163e-07 96.2612 0.336332 112.098 0L124.865 6.11L115.466 12.2191C116.287 12.5499 117.083 12.9667 117.843 13.4745C119.472 14.561 120.846 16.0106 121.838 17.7335C121.922 15.9949 122.057 14.2602 122.255 12.5033C124.443 10.3406 127.534 9.28325 130.605 9.32518C135.226 9.38665 140.331 11.2676 140.331 16.6092C140.331 16.9794 140.299 17.4714 140.159 18.032C140.446 18.3037 140.709 18.584 140.95 18.8713Z" fill="#4F3CCD"/>
<path d="M124.563 33.1525C123.931 27.2218 123.764 19.1901 124.431 13.2264C125.335 12.3326 128.095 11.2311 130.576 11.2657C133.746 11.3101 138.043 12.3151 138.043 16.2987C138.043 16.804 137.958 17.6378 137.342 18.3808C140.57 20.4631 141.132 23.7059 141.132 25.6989C141.132 34.4657 131.11 36.0622 124.563 33.1525ZM142.819 23.4769C142.181 16.9548 146.659 10.7446 153.567 10.5212C160.103 10.3096 164.635 15.2043 165.238 21.3765C165.892 28.0754 161.158 33.853 155.125 34.4356C149.092 35.0176 143.473 30.1749 142.819 23.4769ZM150.268 20.388C150.525 23.0197 152.637 24.4757 155.006 24.2475C157.433 24.0131 159.065 22.1353 158.813 19.5637C158.55 16.8704 156.599 15.3835 154.174 15.6164C151.858 15.84 150.004 17.6946 150.268 20.388ZM112.328 34.2912C118.284 33.1897 122.173 27.668 121.082 21.8575C119.991 16.0484 114.359 12.2852 108.403 13.3865C102.446 14.488 98.5575 20.0105 99.6485 25.8196C100.739 31.6303 106.371 35.3927 112.328 34.2912ZM112.472 26.1647C110.161 26.5919 107.999 25.1476 107.576 22.8933C107.142 20.587 108.69 18.4565 110.947 18.039C113.312 17.6015 115.474 19.0465 115.908 21.3529C116.32 23.5542 114.837 25.7272 112.472 26.1647ZM65.7281 13.9205C65.1695 18.2569 65.6603 30.2413 66.3945 34.4294C69.8169 34.592 72.5725 34.348 74.3416 34.1032C74.1613 32.0401 74.0351 29.2173 74.0902 26.0485C74.9608 26.0754 75.8299 26.0754 76.6718 26.0485C76.7284 27.7304 76.6932 30.1663 77.0668 34.2658C78.0251 34.4025 78.9525 34.483 80.3441 34.483C81.7942 34.483 83.651 34.4025 84.6949 34.348C84.2311 28.7948 83.8441 19.7302 84.5702 15.0321C83.9822 14.9374 77.3445 14.4392 77.2216 14.4486C76.6413 16.1028 76.7284 19.4033 76.7004 20.8956C75.7149 20.8688 74.7565 20.8956 73.8875 20.9502C73.858 18.8609 73.9354 16.519 74.3416 14.2141C71.8152 13.8351 68.2872 13.7073 65.7281 13.9205ZM55.4324 24.5594C56.7554 24.6904 58.5534 24.7119 60.0456 24.6408C60.3392 22.9629 60.3888 21.9845 60.292 21.2636C58.6993 20.9983 57.085 20.9319 55.4347 21.0859C55.4085 20.3864 55.3773 19.7327 55.3614 19.4941C57.5327 19.2052 59.4494 19.1941 61.6255 19.3663C61.6255 17.3639 61.5616 15.3559 61.802 13.3638C59.7255 13.0361 51.8654 11.6447 47.9951 12.1565C46.916 19.3102 47.1851 27.0459 48.1108 34.2019C52.5898 34.5548 57.5918 34.6591 62.0317 34.0092C61.5386 29.8441 61.6551 27.056 61.7125 26.0628C60.2052 26.3194 59.0152 26.3826 57.421 26.3826H55.3614C55.3773 25.9365 55.4068 25.2503 55.4324 24.5594ZM27.6445 33.1083C26.9917 26.9835 26.8969 17.9403 27.5872 11.7822C28.5208 10.8583 31.2922 10.4707 33.8537 10.507C37.128 10.5521 41.5656 11.5895 41.5656 15.7033C41.5656 16.2261 41.4779 17.0858 40.8402 17.8534C44.1749 20.0042 44.7559 23.3537 44.7559 25.4114C44.7559 34.4649 34.4051 36.1135 27.6445 33.1083ZM34.3772 26.7126C35.8144 27.0402 36.9245 26.6274 36.9245 24.5254C36.9245 23.109 35.7306 21.9562 34.3772 22.5247C34.1785 23.9025 34.2248 25.3324 34.3772 26.7126ZM34.4218 17.7325C35.453 18.1693 36.5565 17.4562 36.5565 16.2222C36.5565 15.1049 35.5639 14.5221 34.4218 14.8009V17.7325ZM3.06462 10.1075C1.95236 19.0497 2.12792 27.0521 2.88203 35.7147C6.01323 34.2201 10.4494 31.6263 15.1767 27.2124C15.1479 28.7766 14.9972 32.4174 14.9109 34.1901C17.202 34.3986 19.6383 34.4324 22.2199 34.2248C22.6588 25.972 22.7026 18.3294 22.6139 9.85873L17.9927 9.62035C14.7219 13.2587 11.2474 18.6075 9.12714 20.3809C9.15583 18.8175 9.87954 12.7479 10.083 9.82959C8.13914 9.58632 5.79074 9.55154 3.06462 10.1075ZM66.977 2.49966C66.5708 4.40654 66.2012 5.93912 66.3456 9.61941C67.5937 9.75063 87.6346 11.0234 89.055 11.1544C88.4932 17.8858 88.542 27.1604 88.9338 34.0258C92.0939 34.5193 94.7312 34.2675 96.4716 34.2019C97.1881 27.4777 97.2847 17.6916 96.8849 10.957C97.5944 10.957 106.77 10.8623 113.103 10.7248L120.635 6.01188L111.598 1.79297C97.264 2.09621 68.4172 2.35528 66.977 2.49966ZM131.083 26.9583C132.474 27.2764 133.549 26.8761 133.549 24.8412C133.549 23.469 132.393 22.3532 131.083 22.9037C130.89 24.2381 130.935 25.6214 131.083 26.9583ZM131.125 18.2631C132.124 18.6865 133.193 17.9956 133.193 16.8001C133.193 15.7191 132.231 15.1545 131.125 15.4247V18.2631Z" fill="#FF2A95"/>
<path d="M66.6679 2.15354L66.944 2.12666C67.6926 2.05164 75.6078 1.94655 85.084 1.82266L111.686 1.41602L121.427 5.96487C118.692 7.6751 115.95 9.37894 113.222 11.0988C110.585 11.1516 108.046 11.1967 105.458 11.2338C101.722 11.2875 98.4448 11.3223 97.2917 11.3325C97.4808 14.742 97.5471 18.8487 97.4745 22.9317C97.4042 26.8173 97.2246 30.6989 96.8194 34.5655C93.9808 34.6903 91.4209 34.7937 88.576 34.3491C88.3319 30.1975 88.2416 26.0111 88.2648 21.8531C88.284 18.2091 88.4037 14.6078 88.6494 11.499C87.2992 11.3988 83.0786 11.121 78.6649 10.8311C74.4986 10.5579 70.124 10.3968 65.9848 9.9593C65.8691 7.10114 66.0686 4.94158 66.6679 2.15354ZM123.631 22.5882C123.609 19.3595 123.713 16.1056 124.072 12.8951C125.516 11.4778 128.592 10.7064 130.585 10.7331C132.459 10.7592 134.724 11.1153 136.331 12.1995C137.575 13.038 138.428 14.2959 138.428 16.1411C138.428 16.8454 138.264 17.5308 137.881 18.1292C139.112 18.9995 139.942 20.041 140.493 21.1045C141.319 22.7002 141.518 24.3419 141.518 25.5413C141.518 29.0217 139.957 31.869 136.746 33.4585C135.036 34.3042 133.016 34.7012 130.962 34.7005C128.596 34.7022 126.367 34.207 124.213 33.2493C123.831 29.7166 123.654 26.1397 123.631 22.5882ZM124.39 22.585C124.412 26.1296 124.608 29.7001 124.923 32.7391C126.769 33.524 128.886 33.9481 130.962 33.9481C132.901 33.9496 134.803 33.5777 136.407 32.7849C139.364 31.3242 140.756 28.7375 140.756 25.5413C140.756 24.427 140.574 22.907 139.817 21.4465C139.072 20.0055 138.124 19.1771 136.784 18.3078C137.381 17.5893 137.666 17.1289 137.666 16.1411C137.666 14.5832 136.949 13.5243 135.904 12.8201C134.44 11.8338 132.332 11.5079 130.575 11.4842C128.897 11.4612 126.073 12.1331 124.798 13.2472C124.492 16.0567 124.368 19.3146 124.39 22.585ZM131.437 26.4856C132.799 26.7028 133.173 25.9273 133.173 24.6836C133.173 24.4011 133.116 24.1341 133.016 23.9012C132.746 23.2695 132.165 22.904 131.434 23.0232C131.363 23.6011 131.336 24.1879 131.34 24.7698C131.343 25.339 131.381 25.9154 131.437 26.4856ZM130.74 27.1055C130.651 26.327 130.587 25.561 130.58 24.7761C130.575 23.9927 130.628 23.2562 130.742 22.4831C132.022 22.033 133.166 22.3291 133.715 23.6068C133.856 23.9345 133.935 24.3031 133.935 24.6836C133.935 26.8812 132.819 27.5886 130.74 27.1055ZM131.511 17.8316C132.307 17.9106 132.816 17.4425 132.816 16.6433C132.816 16.3015 132.696 15.9871 132.404 15.7843C132.128 15.5923 131.834 15.5702 131.511 15.5837V17.8316ZM130.749 18.352V14.9733C131.062 14.8967 131.341 14.8225 131.669 14.8225C132.108 14.8225 132.514 14.9456 132.838 15.1692C133.17 15.3996 133.414 15.7369 133.519 16.1594C133.626 16.5983 133.585 17.076 133.407 17.4921C132.915 18.6244 131.848 18.6725 130.749 18.352ZM142.39 22.5154C142.29 19.4353 143.285 16.4703 145.106 14.2019C147.19 11.6041 150.211 10.0896 153.561 9.98788C156.841 9.88278 159.638 11.0238 161.718 12.9575C163.911 14.9977 165.302 17.9192 165.62 21.1842C165.953 24.5938 164.929 27.7734 163.059 30.1896C160.978 32.8773 157.825 34.6262 154.389 34.6982C151.544 34.7629 148.832 33.6826 146.708 31.8105C144.029 29.4481 142.508 26.0427 142.39 22.5154ZM143.149 22.4927C143.258 25.8105 144.695 29.0264 147.213 31.2477C149.224 33.0194 151.792 34.0325 154.476 33.9441C157.642 33.8477 160.541 32.2063 162.455 29.7324C164.215 27.4591 165.178 24.4658 164.864 21.2545C164.563 18.1719 163.256 15.4194 161.197 13.5046C159.261 11.7036 156.651 10.6408 153.584 10.7395C150.464 10.8296 147.641 12.2516 145.7 14.6693C143.99 16.8019 143.054 19.5909 143.149 22.4927ZM153.26 15.2259C155.426 14.6172 157.93 15.5403 158.849 17.8782C159.487 19.5009 159.32 21.4978 158.238 22.832C157.407 23.8538 156.129 24.4137 154.826 24.4823C152.613 24.6 150.732 23.3739 150.09 21.2649C149.305 18.6836 150.605 15.9729 153.26 15.2259ZM154.826 23.7307C155.908 23.6643 156.963 23.2009 157.647 22.3615C158.551 21.2466 158.685 19.5332 158.144 18.1546C157.346 16.112 155.108 15.3799 153.254 16.0163C151.14 16.7388 150.181 18.9442 150.812 21.0334C151.354 22.832 152.943 23.8476 154.826 23.7307ZM119.041 29.4686C120.781 26.9972 121.305 23.9794 120.56 21.0833C119.914 18.5904 118.383 16.5359 116.36 15.1842C114.565 13.9855 112.38 13.3365 110.081 13.4202C106.753 13.5418 103.626 15.1581 101.699 17.894C100.333 19.8325 99.649 22.2297 99.8997 24.7209C100.2 27.7394 101.82 30.4682 104.379 32.1786C106.187 33.3858 108.387 34.035 110.701 33.941C114.016 33.8067 117.12 32.1952 119.041 29.4686ZM119.663 29.8967C117.606 32.8173 114.259 34.5583 110.702 34.6903C108.232 34.7851 105.884 34.0893 103.955 32.8007C101.24 30.9863 99.4942 28.0836 99.155 24.8788C98.863 22.1712 99.5964 19.568 101.076 17.4661C103.146 14.5288 106.521 12.7829 110.098 12.6701C112.548 12.5904 114.872 13.2852 116.784 14.5619C118.963 16.018 120.611 18.2328 121.3 20.9182C122.087 24.0213 121.525 27.2508 119.663 29.8967ZM109.108 25.6881C107.025 24.2967 106.513 21.4512 107.93 19.4108C109.356 17.3564 112.277 16.8019 114.369 18.1988C116.462 19.5979 116.985 22.4602 115.531 24.5005C114.089 26.5204 111.189 27.0771 109.108 25.6881ZM114.911 24.0695C116.124 22.3694 115.688 19.988 113.944 18.8211C112.196 17.6532 109.745 18.1183 108.553 19.8348C107.37 21.5341 107.797 23.9059 109.533 25.0659C111.273 26.2283 113.705 25.7592 114.911 24.0695ZM66.0726 14.1143C65.8412 16.2351 65.8245 19.8838 65.9442 23.5861C66.0742 27.6005 66.3679 31.6709 66.7245 33.9094C68.299 33.974 69.7275 33.952 70.9739 33.8857C72.1237 33.8248 73.1205 33.7246 73.9367 33.6204C73.8539 32.5994 73.7843 31.3984 73.7437 30.0625C73.6958 28.5408 73.695 27.0248 73.7222 25.5033L77.0434 25.5026C77.116 28.2803 77.1783 30.9997 77.4225 33.7766C79.684 34.0673 82.0157 33.9259 84.2875 33.8344C84.0402 30.7344 83.8192 26.6435 83.7945 22.8194C83.7768 19.9453 83.8686 17.2261 84.1431 15.2047L81.6933 14.9977L77.5007 14.6811C76.9915 16.5098 77.1008 19.147 77.0769 21.1235C75.8671 21.0919 74.726 21.1171 73.5187 21.1921C73.4995 19.9532 73.5035 18.7239 73.5761 17.4849C73.6367 16.4617 73.7405 15.4147 73.9065 14.3749C72.728 14.2152 71.3674 14.1087 70.0098 14.062C68.6429 14.0156 67.2672 14.0304 66.0726 14.1143ZM65.1851 23.609C65.0791 20.3418 64.9737 16.6551 65.3958 13.4123C66.9504 13.2835 68.4729 13.2583 70.033 13.3112C71.6427 13.3657 73.1963 13.5039 74.7876 13.7415C74.5649 15.0105 74.41 16.2383 74.335 17.5269C74.2776 18.5139 74.2616 19.4787 74.2679 20.3946L76.3307 20.3544C76.3412 18.2437 76.2422 15.9484 76.9501 13.9327C78.9786 13.9453 82.8416 14.2895 85.009 14.5634C84.5837 17.286 84.5366 20.0669 84.5534 22.8162C84.578 26.7218 84.7823 30.653 85.1112 34.545C82.3094 34.6926 79.5115 34.8403 76.7217 34.4384C76.4673 31.719 76.3676 29.0067 76.3077 26.2779H74.4691C74.4524 27.6061 74.4659 28.8725 74.5025 30.0418C74.5464 31.4562 74.6327 32.8592 74.7564 34.2686C73.5058 34.4424 72.2754 34.5702 71.0122 34.6366C69.3619 34.7242 67.7275 34.7148 66.0766 34.6319C65.4557 31.1347 65.3001 27.1583 65.1851 23.609ZM57.625 24.142C58.3265 24.1546 59.0502 24.1467 59.7261 24.1208C59.8395 23.4353 59.9096 22.8764 59.94 22.4128C59.9655 22.0259 59.9672 21.707 59.9472 21.4314C58.2682 21.1788 56.7624 21.1827 55.077 21.3389L54.9685 19.0096C57.1103 18.7263 59.0901 18.6535 61.2487 18.8028C61.2423 17.0437 61.2081 15.2758 61.3884 13.5236C57.755 13.0017 51.9186 12.1425 48.3323 12.3448C47.8583 15.6136 47.6628 18.9995 47.6797 22.3884C47.6987 26.1982 47.9892 30.0206 48.4537 33.693C50.5986 33.8541 52.8538 33.9583 55.0889 33.9488C57.3041 33.9393 59.5186 33.8169 61.6166 33.5311C61.4003 31.6022 61.315 29.9717 61.2901 28.6948C61.2711 27.6819 61.2901 26.893 61.3141 26.3514C60.7293 26.4383 60.1826 26.4982 59.6303 26.5377C58.0951 26.6435 56.5133 26.6024 54.9717 26.6024L55.0739 23.9865C55.93 24.0734 56.7632 24.127 57.625 24.142ZM57.6131 24.8938C56.9794 24.882 56.3577 24.8544 55.8008 24.8109L55.7609 25.8483C57.0288 25.8483 58.3121 25.8737 59.5761 25.7861C60.4443 25.7259 61.2719 25.6005 62.1258 25.4528C62.0594 26.537 62.029 27.5943 62.0499 28.683C62.0834 30.5244 62.239 32.3428 62.4577 34.1707C59.9903 34.5324 57.5867 34.6886 55.0921 34.6997C52.648 34.7108 50.2148 34.5899 47.7785 34.3957C47.2607 30.406 46.9423 26.4153 46.9206 22.3908C46.9024 18.7917 47.1201 15.2259 47.666 11.6658C50.8037 11.2165 58.6178 12.3226 61.8664 12.8351L62.2278 12.8919C61.9572 15.1289 62.0028 17.3697 62.0108 19.6161L61.6006 19.5838C59.6255 19.4291 57.732 19.4281 55.7632 19.665L55.8024 20.5217C56.5094 20.4713 57.2093 20.4585 57.9026 20.4847C58.8355 20.5187 59.719 20.6283 60.6367 20.7808C60.7141 21.3715 60.7395 21.8593 60.6989 22.4619C60.6455 23.2616 60.5106 24.0544 60.3724 24.844L60.0677 24.8591C59.3001 24.8961 58.4437 24.9079 57.6131 24.8938ZM26.7362 22.0047C26.7267 18.521 26.8264 14.9118 27.2286 11.4501C28.6075 10.1394 32.0229 9.9484 33.8638 9.97359C35.7967 10.0005 38.1339 10.3691 39.7914 11.4849C41.073 12.3495 41.9508 13.6445 41.9508 15.5465C41.9508 16.2793 41.7817 16.982 41.381 17.6034C43.9393 19.4061 45.1411 22.1855 45.1411 25.2539C45.1411 26.7998 44.8458 28.1429 44.3241 29.2949C42.5628 33.175 38.3032 34.7022 34.2541 34.7022C31.8322 34.7022 29.498 34.1929 27.294 33.2034C26.8942 29.5034 26.7459 25.7252 26.7362 22.0047ZM27.495 22.0047C27.5047 25.793 27.6858 29.6014 28.005 32.6956C29.913 33.5089 32.1052 33.9481 34.2541 33.9481C37.9935 33.9481 41.9979 32.5875 43.6321 28.9887C44.1094 27.9353 44.379 26.6941 44.379 25.2539C44.379 21.9272 43.0712 19.5877 40.283 17.781C40.9102 17.0279 41.1887 16.5406 41.1887 15.5465C41.1887 13.9334 40.4466 12.8359 39.3638 12.1055C37.8506 11.0862 35.6698 10.7489 33.8543 10.7245C32.5129 10.7064 31.1132 10.8051 29.9648 11.038C29.0815 11.218 28.3578 11.4738 27.9539 11.8079C27.6307 14.7697 27.4855 18.3828 27.495 22.0047ZM34.7314 26.2401C35.2356 26.3213 35.6698 26.2835 35.973 26.0686C36.3306 25.8128 36.5483 25.2822 36.5483 24.3678C36.5483 24.0757 36.4892 23.7985 36.3855 23.5562C36.1613 23.0279 35.689 22.5961 35.0848 22.5961C34.97 22.5961 34.8494 22.6119 34.7281 22.6442C34.6538 23.2443 34.6252 23.8531 34.6299 24.4571C34.6331 25.0501 34.6723 25.6487 34.7314 26.2401ZM36.4151 26.6783C35.6945 27.1884 34.8343 27.0445 34.0339 26.8607C33.9436 26.0592 33.8767 25.2712 33.8703 24.4635C33.8638 23.6564 33.9189 22.9001 34.0363 22.1033C34.3945 21.9548 34.6827 21.842 35.0848 21.842C35.997 21.842 36.7391 22.4555 37.0838 23.2616C37.2291 23.5989 37.3104 23.977 37.3104 24.3678C37.3104 25.5539 36.973 26.2835 36.4151 26.6783ZM34.8072 17.3011C35.0992 17.3618 35.3985 17.3137 35.6491 17.1471C36.0154 16.9055 36.1805 16.4885 36.1805 16.0646C36.1805 15.9484 36.1678 15.8435 36.1446 15.751C35.9875 15.1043 35.4064 14.9306 34.8072 14.9599V17.3011ZM34.0451 17.8213V14.3487C34.8032 14.1656 35.4838 14.0677 36.1845 14.5533C36.5252 14.7909 36.7735 15.1359 36.882 15.5687C36.9219 15.7258 36.9426 15.8924 36.9426 16.0646C36.9426 17.6895 35.5326 18.4539 34.0451 17.8213ZM3.42127 10.2721C2.89136 14.6315 2.66545 18.7658 2.66545 22.8589C2.66545 26.8543 2.87863 30.8363 3.22576 34.9657C7.94194 32.6357 11.7739 29.7111 15.5843 26.1508C15.5395 28.6679 15.4262 31.167 15.32 33.6826C17.4986 33.8612 19.6748 33.8674 21.8549 33.7103C22.0624 29.7016 22.1788 25.8397 22.2315 21.962C22.2843 18.0779 22.2753 14.1656 22.2347 10.0659L18.1641 9.85665C16.7596 11.4336 15.3105 13.3301 13.9547 15.1043C12.2908 17.2813 10.8434 19.2916 8.73025 21.0618C8.79409 17.4163 9.39411 13.6665 9.67341 10.0106C8.81803 9.91756 7.88684 9.8685 6.88136 9.89463C5.81128 9.92227 4.6557 10.0368 3.42127 10.2721ZM1.89063 22.8589C1.89139 18.4159 2.1667 14.04 2.71808 9.63087C4.10907 9.34736 5.43926 9.165 6.86293 9.12796C8.10629 9.09638 9.27042 9.18474 10.5003 9.33721C10.2639 12.6622 9.82674 15.9571 9.57366 19.2758C12.5073 16.2383 14.929 12.3029 17.8322 9.07025L23.0025 9.33646C23.0391 13.5505 23.0646 17.7574 23.0065 21.9716C22.9489 26.1271 22.8132 30.2725 22.5938 34.4234C19.8536 34.646 17.2481 34.6294 14.51 34.3799L14.7711 27.9533C11.042 31.321 7.09435 33.9772 2.54822 36.1447C2.15967 31.7158 1.88987 27.3051 1.89063 22.8589ZM67.2936 2.85854C66.9297 4.55863 66.6168 6.05323 66.719 9.27404C68.1833 9.38853 73.5816 9.74385 78.7128 10.0802C82.2806 10.3139 85.9122 10.4893 89.4698 10.8153C89.1626 14.4909 89.0429 18.1687 89.0237 21.8561C89.003 25.9028 89.1067 30.1635 89.2997 33.7001C91.6371 34.0333 93.7982 33.9543 96.1314 33.8406C96.4555 30.6666 96.647 26.7233 96.7149 22.9189C96.789 18.8021 96.7276 14.6914 96.4874 10.5808C99.4718 10.5808 102.465 10.5248 105.449 10.4829C107.962 10.4473 110.661 10.4024 112.994 10.3526L119.852 6.06112L111.521 2.17084C104.524 2.31766 94.1005 2.45584 85.0935 2.57353C76.3347 2.68802 68.9143 2.78673 67.2936 2.85854Z" fill="white"/>
</svg>
