<svg width="1400" height="948" viewBox="0 0 1400 948" fill="none" xmlns="http://www.w3.org/2000/svg">
<path opacity="0.25" d="M1069.56 220.104C1088.7 336.972 1110.42 399.906 1164.93 464.364C1236.27 548.738 1475.23 643.331 1475.23 643.331C1496.05 676.192 1380.1 735.305 1383.23 772.596C1383.4 774.626 1385.03 785.86 1379.42 785.554C1371.43 785.118 1354.34 776.307 1350.75 774.453C1301.3 748.946 1269.11 723.53 1207.74 690.1C1047.24 602.67 890.507 523.609 749.599 433.85C594.304 334.926 459.333 229.066 307.984 125.845C275.195 103.483 259.125 72.2455 222.776 54.0553C173.62 29.4556 235.787 98.7635 239.268 102.791C461.167 359.536 791.263 555.815 975.182 835.853C979.363 842.22 989.165 852.531 990.471 860.187C991.692 867.348 974.079 855.691 966.598 852.116C917.895 828.845 888.925 806.263 845.525 776.124C709.912 681.946 533.065 583.609 415.331 473.182C384.491 444.255 355.793 413.938 323.838 385.823C320.307 382.717 181.689 222.644 172.053 225.43C161.59 228.455 379.917 520.167 383.369 525.754C444.226 624.223 514.142 716.923 575.921 814.99C581.034 823.106 591.457 847.729 580.982 845.549C572.104 843.701 565.262 837.418 557.824 832.82C513.093 786.393 485.049 762.026 442.265 728.274C253.592 579.435 9.95834 420.129 -180.987 326.266" stroke="white" stroke-width="170" stroke-linecap="round"/>
</svg>
