<svg width="1400" height="971" viewBox="0 0 1400 971" fill="none" xmlns="http://www.w3.org/2000/svg">
<path opacity="0.25" d="M230.681 714.639C211.539 597.77 189.818 534.836 135.314 470.379C63.9675 386.004 -174.992 291.411 -174.992 291.411C-195.812 258.55 -79.8568 199.437 -82.985 162.146C-83.1553 160.116 -84.7882 148.882 -79.1811 149.188C-71.1852 149.625 -54.1008 158.436 -50.5062 160.29C-1.05333 185.796 31.1333 211.212 92.5043 244.643C253.007 332.072 409.735 411.133 550.643 500.892C705.938 599.816 840.91 705.676 992.259 808.897C1025.05 831.259 1041.12 862.497 1077.47 880.687C1126.62 905.287 1064.45 835.979 1060.97 831.951C839.075 575.206 508.979 378.927 325.06 98.8894C320.879 92.5226 311.077 82.2108 309.772 74.5549C308.55 67.3945 326.163 79.0513 333.645 82.626C382.347 105.897 411.317 128.479 454.717 158.619C590.33 252.797 767.177 351.133 884.911 461.561C915.751 490.487 944.45 520.804 976.405 548.919C979.935 552.025 1118.55 712.098 1128.19 709.312C1138.65 706.287 920.326 414.575 916.873 408.988C856.016 310.52 786.101 217.819 724.321 119.752C719.208 111.637 708.785 87.0131 719.26 89.1933C728.138 91.0409 734.98 97.3243 742.418 101.922C787.149 148.349 815.193 172.716 857.978 206.468C1046.65 355.308 1290.28 514.613 1481.23 608.476" stroke="white" stroke-width="170" stroke-linecap="round"/>
</svg>
