<svg width="1920" height="1023" viewBox="0 0 1920 1023" fill="none" xmlns="http://www.w3.org/2000/svg">
<path opacity="0.2" d="M-319.926 156.461C-323.039 183.267 -226.797 339.745 -161.62 361.942C-69.9823 393.152 69.3071 401.454 143.629 406.187C313.001 406.187 555.003 420.408 708.5 361.942C833.615 314.287 885.217 326.858 974.5 249.909C1011.97 217.611 928.987 92.7701 873.5 86.4092C815 68.9095 811.483 76.8783 752 76.4092C678.397 75.8288 602.191 100.971 535.235 124.285C408.367 168.459 350.101 272.285 336 361.942C326.002 425.517 327.632 503.116 403.027 550.317C519.783 623.414 726.784 602.584 866.677 580.864C1099.72 544.682 1321.48 480.295 1554.16 441.976C1588.9 436.255 1624.25 431.306 1659.93 428.943C1662.04 428.803 1693.68 425.994 1692.21 430.368C1688.97 440.033 1646.2 455.234 1639.02 458.472C1561.32 493.502 1481.1 525.935 1400.43 557.852C1317.51 590.661 1234.56 623.354 1152.62 657.233C1107.23 675.997 1074.46 689.377 1018.56 718.938C962.667 748.5 866.677 801.548 890.132 865.607C989.983 1138.31 1966.04 643.994 2025 667.426" stroke="#986BD8" stroke-width="150" stroke-linecap="round"/>
</svg>
