<svg width="447" height="279" viewBox="0 0 447 279" fill="none" xmlns="http://www.w3.org/2000/svg">
<path opacity="0.25" d="M214.588 621.284C193.14 490.343 168.805 419.83 107.737 347.612C27.7998 253.077 -239.934 147.094 -239.934 147.094C-263.261 110.276 -133.343 44.0447 -136.848 2.26345C-137.039 -0.0111837 -138.868 -12.5978 -132.586 -12.2548C-123.627 -11.7656 -104.486 -1.89354 -100.458 0.183683C-45.0505 28.7612 -8.98812 57.2381 59.7728 94.6939C239.602 192.651 415.203 281.232 573.078 381.8C747.073 492.635 898.296 611.242 1067.87 726.892C1104.61 751.947 1122.61 786.946 1163.34 807.326C1218.41 834.888 1148.76 757.235 1144.86 752.722C896.241 465.061 526.396 245.148 320.332 -68.6099C315.647 -75.7434 304.665 -87.2969 303.202 -95.8747C301.834 -103.897 321.567 -90.8369 329.95 -86.8317C384.516 -60.7585 416.975 -35.4576 465.601 -1.68863C617.544 103.83 815.685 214.008 947.596 337.732C982.15 370.141 1014.3 404.109 1050.11 435.609C1054.06 439.089 1209.37 618.438 1220.17 615.316C1231.89 611.926 987.275 285.088 983.406 278.829C915.221 168.503 836.887 64.6401 767.669 -45.235C761.94 -54.3278 750.262 -81.9163 761.999 -79.4737C771.945 -77.4036 779.611 -70.3636 787.945 -65.2123C838.062 -13.1951 869.483 14.1064 917.419 51.9223C1128.81 218.684 1401.78 397.172 1615.72 502.338" stroke="white" stroke-width="170" stroke-linecap="round"/>
</svg>
