<svg width="447" height="279" viewBox="0 0 447 279" fill="none" xmlns="http://www.w3.org/2000/svg">
<path opacity="0.25" d="M-105.412 -105.801C-126.86 25.1395 -151.195 95.6521 -212.263 167.871C-292.2 262.405 -559.934 368.388 -559.934 368.388C-583.261 405.206 -453.343 471.438 -456.848 513.219C-457.039 515.494 -458.868 528.08 -452.586 527.737C-443.627 527.248 -424.486 517.376 -420.458 515.299C-365.05 486.721 -328.988 458.244 -260.227 420.789C-80.3981 322.831 95.2028 234.25 253.078 133.683C427.073 22.8472 578.296 -95.7596 747.869 -211.409C784.607 -236.464 802.611 -271.463 843.337 -291.844C898.413 -319.406 828.759 -241.752 824.859 -237.239C576.241 50.4211 206.396 270.335 0.331624 584.092C-4.35339 591.226 -15.3352 602.779 -16.7981 611.357C-18.1662 619.38 1.56748 606.319 9.9496 602.314C64.5162 576.241 96.9748 550.94 145.601 517.171C297.544 411.653 495.685 301.475 627.596 177.751C662.15 145.341 694.304 111.373 730.107 79.8732C734.062 76.393 889.371 -102.955 900.167 -99.8336C911.891 -96.4439 667.275 230.394 663.406 236.654C595.221 346.979 516.887 450.842 447.669 560.717C441.94 569.81 430.262 597.399 441.999 594.956C451.945 592.886 459.611 585.846 467.945 580.695C518.062 528.677 549.483 501.376 597.419 463.56C808.811 296.798 1081.78 118.31 1295.72 13.1445" stroke="white" stroke-width="170" stroke-linecap="round"/>
</svg>
