<svg width="1400" height="663" viewBox="0 0 1400 663" fill="none" xmlns="http://www.w3.org/2000/svg">
<path d="M-100.594 -72.1104C-102.65 -45.3677 -105.771 26.3357 -82.6368 71.6805C-43.41 148.569 51.8633 150.836 100.93 155.559C212.749 155.559 318.617 147.601 419.955 89.2734C502.556 41.7308 589.571 -16.8095 648.514 -93.5768C673.255 -125.798 654.293 -133.959 617.661 -140.305C578.844 -147.03 538.998 -147.354 499.728 -147.822C451.135 -148.401 403.67 -148.936 359.466 -125.677C275.709 -81.607 237.241 21.9729 227.933 111.419C221.332 174.842 222.408 252.258 272.183 299.348C349.265 372.272 485.926 351.491 578.282 329.823C732.137 293.726 878.539 229.492 1032.15 191.263C1055.09 185.556 1078.43 180.618 1101.98 178.261C1103.37 178.121 1124.26 175.319 1123.29 179.683C1121.15 189.325 1092.92 204.49 1088.18 207.72C1036.88 242.667 983.919 275.024 930.662 306.865C875.917 339.596 821.155 372.212 767.057 406.011C737.093 424.731 715.458 438.079 678.556 467.57C641.654 497.062 578.282 549.985 593.767 613.892C659.688 885.948 1304.07 392.803 1343 416.18" stroke="#986BD8" stroke-width="200" stroke-linecap="round"/>
</svg>
